<svg width="9" height="5" viewBox="0 0 9 5" fill="none" xmlns="http://www.w3.org/2000/svg">
<path d="M0.000872612 1.1032C0.000606537 0.953622 0.0480747 0.808668 0.135038 0.693496C0.184009 0.628675 0.244151 0.575093 0.31202 0.535818C0.379889 0.496544 0.454151 0.472348 0.530554 0.464618C0.606956 0.456887 0.683998 0.465774 0.757267 0.490768C0.830535 0.515763 0.898592 0.556374 0.957536 0.610276L4.08419 3.47817L7.21668 0.712701C7.27635 0.659526 7.34501 0.619816 7.41871 0.595854C7.4924 0.571892 7.56969 0.56415 7.64612 0.573074C7.72256 0.581997 7.79663 0.607409 7.86408 0.64785C7.93154 0.688291 7.99104 0.742963 8.03918 0.808724C8.09229 0.874959 8.13234 0.952524 8.15684 1.03655C8.18133 1.12058 8.18973 1.20926 8.18152 1.29702C8.1733 1.38478 8.14864 1.46973 8.10909 1.54654C8.06954 1.62334 8.01595 1.69035 7.95168 1.74335L4.45169 4.8353C4.34732 4.92945 4.21639 4.98093 4.08128 4.98093C3.94616 4.98093 3.81524 4.92945 3.71086 4.8353L0.210872 1.63452C0.140279 1.57031 0.0844746 1.48873 0.0479879 1.39641C0.0115013 1.3041 -0.00464058 1.20364 0.000872612 1.1032Z" fill="#2D2A1E"/>
</svg>
