<svg width="5" height="9" viewBox="0 0 5 9" fill="none" xmlns="http://www.w3.org/2000/svg">
<path d="M0.58436 8.18372C0.448063 8.18399 0.315975 8.13652 0.211027 8.04955C0.151959 8.00058 0.103133 7.94044 0.0673444 7.87257C0.0315558 7.8047 0.00950792 7.73044 0.00246366 7.65404C-0.00458059 7.57763 0.00351726 7.50059 0.0262932 7.42732C0.0490692 7.35406 0.0860753 7.286 0.135193 7.22705L2.74853 4.10039L0.228527 0.967889C0.180072 0.908221 0.143887 0.839564 0.122051 0.765867C0.100216 0.692169 0.0931615 0.614882 0.101293 0.538449C0.109424 0.462015 0.13258 0.387943 0.169432 0.320488C0.206283 0.253033 0.256103 0.193527 0.316027 0.145388C0.376382 0.0922838 0.447062 0.0522278 0.523632 0.0277342C0.600201 0.00324057 0.681008 -0.00516159 0.760978 0.0030546C0.840949 0.0112708 0.918359 0.0359281 0.988348 0.0754792C1.05834 0.11503 1.1194 0.168621 1.16769 0.232888L3.98519 3.73289C4.07099 3.83727 4.11789 3.96819 4.11789 4.1033C4.11789 4.23842 4.07099 4.36934 3.98519 4.47372L1.06853 7.97372C1.01001 8.04431 0.935672 8.10012 0.85155 8.13661C0.767427 8.17309 0.675889 8.18923 0.58436 8.18372Z" fill="#333333"/>
</svg>
