<svg width="9" height="5" viewBox="0 0 9 5" fill="none" xmlns="http://www.w3.org/2000/svg">
<path d="M8.1837 3.87825C8.18396 4.02782 8.1365 4.17277 8.04953 4.28795C8.00056 4.35277 7.94042 4.40635 7.87255 4.44563C7.80468 4.4849 7.73042 4.5091 7.65402 4.51683C7.57761 4.52456 7.50057 4.51567 7.4273 4.49068C7.35403 4.46568 7.28598 4.42507 7.22703 4.37117L4.10038 1.50325L0.967886 4.26874C0.908218 4.32192 0.839562 4.36163 0.765864 4.38559C0.692167 4.40955 0.61488 4.41729 0.538447 4.40837C0.462014 4.39945 0.387942 4.37404 0.320487 4.33359C0.253033 4.29315 0.193526 4.23848 0.145388 4.17272C0.0922836 4.10648 0.0522276 4.02892 0.0277341 3.94489C0.00324056 3.86086 -0.00516157 3.77218 0.00305459 3.68442C0.0112707 3.59666 0.035928 3.51171 0.075479 3.4349C0.11503 3.35809 0.168621 3.29109 0.232888 3.23809L3.73288 0.146116C3.83726 0.0519605 3.96818 0.000488281 4.10329 0.000488281C4.23841 0.000488281 4.36933 0.0519605 4.47371 0.146116L7.9737 3.34691C8.04429 3.41113 8.1001 3.49271 8.13658 3.58503C8.17307 3.67734 8.18921 3.7778 8.1837 3.87825Z" fill="#2D2A1E"/>
</svg>
