<svg width="32" height="32" viewBox="0 0 32 32" fill="none" xmlns="http://www.w3.org/2000/svg">
<path d="M12 11L12 10.5C12 7.46243 14.4624 5 17.5 5V5C20.5376 5 23 7.46243 23 10.5L23 11" stroke="#111111" stroke-width="1.5" stroke-linecap="round"/>
<path d="M30.0135 16.7257C29.6233 21.3185 29.4281 23.6149 28.2013 25.2316C27.696 25.8974 27.0756 26.4673 26.3694 26.9144C24.6546 28 22.3499 28 17.7406 28H17.2594C12.6501 28 10.3454 28 8.63061 26.9144C7.92441 26.4673 7.30398 25.8974 6.79871 25.2316C5.57185 23.6149 5.37673 21.3185 4.98649 16.7257V16.7257C4.79143 14.4299 4.69389 13.282 5.19879 12.4473C5.40547 12.1056 5.67829 11.8086 6.00126 11.5737C6.7902 11 7.94224 11 10.2463 11H24.7537C27.0578 11 28.2098 11 28.9987 11.5737C29.3217 11.8086 29.5945 12.1056 29.8012 12.4473C30.3061 13.282 30.2086 14.4299 30.0135 16.7257V16.7257Z" stroke="#111111" stroke-width="1.5"/>
<line x1="11.25" y1="18.25" x2="23.75" y2="18.25" stroke="black" stroke-width="1.5" stroke-linecap="round"/>
</svg>
