<svg width="24" height="24" viewBox="0 0 24 24" fill="none" xmlns="http://www.w3.org/2000/svg">
<path d="M9 8.25L9 7.875C9 5.59683 10.8468 3.75 13.125 3.75V3.75C15.4032 3.75 17.25 5.59683 17.25 7.875L17.25 8.25" stroke="#FFFFFF" stroke-width="1.5" stroke-linecap="round"/>
<path d="M22.5101 12.5443C22.347 14.4647 22.2654 15.4249 22.0008 16.2172C21.2373 18.5036 19.3511 20.2362 17.0084 20.8034C16.1965 21 15.2328 21 13.3055 21H12.9445C11.0172 21 10.0535 21 9.24163 20.8034C6.89886 20.2362 5.01272 18.5036 4.24922 16.2172C3.98464 15.4249 3.90305 14.4647 3.73987 12.5443V12.5443C3.65841 11.5855 3.61768 11.1061 3.68911 10.7133C3.89611 9.57493 4.73929 8.65706 5.85604 8.35444C6.24143 8.25 6.72253 8.25 7.68473 8.25H18.5653C19.5275 8.25 20.0086 8.25 20.394 8.35444C21.5107 8.65706 22.3539 9.57493 22.5609 10.7133C22.6323 11.1061 22.5916 11.5855 22.5101 12.5443V12.5443Z" stroke="#FFFFFF" stroke-width="1.5"/>
<line x1="8.625" y1="13.5" x2="17.625" y2="13.5" stroke="#FFFFFF" stroke-width="1.5" stroke-linecap="round"/>
</svg>
