<svg width="22" height="19" viewBox="0 0 22 19" fill="none" xmlns="http://www.w3.org/2000/svg">
<path d="M7 5.25L7 4.875C7 2.59683 8.84682 0.750001 11.125 0.750001V0.750001C13.4032 0.750001 15.25 2.59683 15.25 4.875L15.25 5.25" stroke="#111111" stroke-width="1.5" stroke-linecap="round"/>
<path d="M20.5101 9.54426C20.347 11.4647 20.2654 12.4249 20.0008 13.2172C19.2373 15.5036 17.3511 17.2362 15.0084 17.8034C14.1965 18 13.2328 18 11.3055 18H10.9445C9.01717 18 8.05348 18 7.24163 17.8034C4.89886 17.2362 3.01272 15.5036 2.24922 13.2172C1.98464 12.4249 1.90305 11.4647 1.73987 9.54426V9.54426C1.65841 8.58551 1.61768 8.10614 1.68911 7.7133C1.89611 6.57493 2.73929 5.65706 3.85604 5.35444C4.24143 5.25 4.72253 5.25 5.68473 5.25H16.5653C17.5275 5.25 18.0086 5.25 18.394 5.35444C19.5107 5.65706 20.3539 6.57493 20.5609 7.7133C20.6323 8.10614 20.5916 8.58551 20.5101 9.54426V9.54426Z" stroke="#111111" stroke-width="1.5"/>
</svg>
