<svg width="29" height="29" viewBox="0 0 29 29" fill="none" xmlns="http://www.w3.org/2000/svg">
<path d="M2.47994 7.50438L1.50284 7.71716L1.50505 7.72733L1.50748 7.73744L2.47994 7.50438ZM6.96637 20.2823L6.36527 21.0815L6.96637 20.2823ZM3.65028 12.3875L2.67782 12.6206L3.65028 12.3875ZM6.74898 20.1109L7.38605 19.3401L6.74898 20.1109ZM26.6061 12.9806L27.5785 13.2136L26.6061 12.9806ZM24.033 19.7653L24.7335 20.4789L24.033 19.7653ZM23.0067 20.5747L22.476 19.7271L23.0067 20.5747ZM26.5129 8.16346L25.8266 8.89074L26.5129 8.16346ZM26.95 8.71769L26.0828 9.21563L26.95 8.71769ZM2.47612 2.78722C2.35861 2.24758 1.82588 1.90538 1.28624 2.0229C0.746604 2.14042 0.404407 2.67314 0.521924 3.21278L2.47612 2.78722ZM19.333 17.9167C19.8853 17.9167 20.333 17.4689 20.333 16.9167C20.333 16.3644 19.8853 15.9167 19.333 15.9167V17.9167ZM12.083 15.9167C11.5307 15.9167 11.083 16.3644 11.083 16.9167C11.083 17.4689 11.5307 17.9167 12.083 17.9167V15.9167ZM2.47994 8.50438H22.2873V6.50438H2.47994V8.50438ZM15.8091 20.4956H15.1992V22.4956H15.8091V20.4956ZM4.62274 12.1544L3.4524 7.27131L1.50748 7.73744L2.67782 12.6206L4.62274 12.1544ZM15.1992 20.4956C12.969 20.4956 11.3821 20.494 10.1482 20.3506C8.93964 20.2102 8.17941 19.9434 7.56746 19.4831L6.36527 21.0815C7.36645 21.8345 8.51608 22.1744 9.91734 22.3373C11.2933 22.4972 13.0163 22.4956 15.1992 22.4956V20.4956ZM2.67782 12.6206C3.1866 14.7434 3.58664 16.4193 4.06285 17.7201C4.54781 19.0448 5.14628 20.0836 6.11191 20.8817L7.38605 19.3401C6.79583 18.8522 6.35923 18.1751 5.94095 17.0326C5.51391 15.8661 5.14253 14.3232 4.62274 12.1544L2.67782 12.6206ZM7.56746 19.4831C7.50591 19.4368 7.44543 19.3891 7.38605 19.3401L6.11191 20.8817C6.19482 20.9502 6.27929 21.0168 6.36527 21.0815L7.56746 19.4831ZM25.6336 12.7475C25.184 14.6236 24.8629 15.9582 24.5061 16.9796C24.1561 17.9819 23.8006 18.5921 23.3324 19.0517L24.7335 20.4789C25.5037 19.7228 25.9899 18.797 26.3943 17.639C26.7921 16.5002 27.1383 15.0502 27.5785 13.2136L25.6336 12.7475ZM15.8091 22.4956C17.6977 22.4956 19.1884 22.4968 20.3886 22.3754C21.609 22.252 22.6226 21.995 23.5374 21.4223L22.476 19.7271C21.9199 20.0753 21.2437 20.2787 20.1874 20.3856C19.111 20.4944 17.7383 20.4956 15.8091 20.4956V22.4956ZM23.3324 19.0517C23.0722 19.3071 22.7851 19.5336 22.476 19.7271L23.5374 21.4223C23.969 21.152 24.3701 20.8357 24.7335 20.4789L23.3324 19.0517ZM22.2873 8.50438C23.489 8.50438 24.2985 8.50614 24.8989 8.5794C25.4828 8.65065 25.7023 8.7735 25.8266 8.89074L27.1992 7.43618C26.6251 6.89433 25.9076 6.68765 25.1411 6.59412C24.3912 6.50261 23.4371 6.50438 22.2873 6.50438V8.50438ZM27.5785 13.2136C27.8465 12.0955 28.0706 11.1681 28.1564 10.4175C28.2441 9.65031 28.2103 8.9044 27.8172 8.21975L26.0828 9.21563C26.1678 9.36376 26.2361 9.60591 26.1693 10.1903C26.1006 10.7913 25.9137 11.5789 25.6336 12.7475L27.5785 13.2136ZM25.8266 8.89074C25.9274 8.98591 26.0137 9.09538 26.0828 9.21563L27.8172 8.21975C27.6507 7.92973 27.4425 7.66572 27.1992 7.43618L25.8266 8.89074ZM3.45704 7.29159L2.47612 2.78722L0.521924 3.21278L1.50284 7.71716L3.45704 7.29159ZM19.333 15.9167H12.083V17.9167H19.333V15.9167Z" fill="#59A750"/>
<path d="M12.6562 25.768C12.6562 26.4705 12.0867 27.04 11.3842 27.04C10.6818 27.04 10.1123 26.4705 10.1123 25.768C10.1123 25.0656 10.6818 24.4961 11.3842 24.4961C12.0867 24.4961 12.6562 25.0656 12.6562 25.768Z" fill="#59A750"/>
<path d="M20.2877 25.768C20.2877 26.4705 19.7183 27.04 19.0158 27.04C18.3133 27.04 17.7439 26.4705 17.7439 25.768C17.7439 25.0656 18.3133 24.4961 19.0158 24.4961C19.7183 24.4961 20.2877 25.0656 20.2877 25.768Z" fill="#59A750"/>
</svg>
