<svg width="29" height="29" viewBox="0 0 29 29" fill="none" xmlns="http://www.w3.org/2000/svg">
<path d="M2.48018 7.50438L1.50308 7.71716L1.5053 7.72733L1.50772 7.73744L2.48018 7.50438ZM6.96661 20.2823L6.36552 21.0815L6.96661 20.2823ZM3.65052 12.3875L2.67806 12.6206L3.65052 12.3875ZM6.74922 20.1109L7.3863 19.3401L6.74922 20.1109ZM26.6063 12.9806L27.5788 13.2136L26.6063 12.9806ZM24.0332 19.7653L24.7338 20.4789L24.0332 19.7653ZM23.0069 20.5747L22.4762 19.7271L23.0069 20.5747ZM26.5131 8.16346L25.8268 8.89074L26.5131 8.16346ZM26.9502 8.71769L26.083 9.21563L26.9502 8.71769ZM2.47637 2.78722C2.35885 2.24758 1.82612 1.90538 1.28649 2.0229C0.746848 2.14042 0.404652 2.67314 0.522168 3.21278L2.47637 2.78722ZM19.3333 17.9167C19.8855 17.9167 20.3333 17.4689 20.3333 16.9167C20.3333 16.3644 19.8855 15.9167 19.3333 15.9167V17.9167ZM12.0833 15.9167C11.531 15.9167 11.0833 16.3644 11.0833 16.9167C11.0833 17.4689 11.531 17.9167 12.0833 17.9167V15.9167ZM2.48018 8.50438H22.2875V6.50438H2.48018V8.50438ZM15.8093 20.4956H15.1995V22.4956H15.8093V20.4956ZM4.62298 12.1544L3.45264 7.27131L1.50772 7.73744L2.67806 12.6206L4.62298 12.1544ZM15.1995 20.4956C12.9693 20.4956 11.3824 20.494 10.1485 20.3506C8.93988 20.2102 8.17966 19.9434 7.5677 19.4831L6.36552 21.0815C7.36669 21.8345 8.51632 22.1744 9.91759 22.3373C11.2936 22.4972 13.0165 22.4956 15.1995 22.4956V20.4956ZM2.67806 12.6206C3.18684 14.7434 3.58688 16.4193 4.06309 17.7201C4.54806 19.0448 5.14653 20.0836 6.11215 20.8817L7.3863 19.3401C6.79607 18.8522 6.35948 18.1751 5.9412 17.0326C5.51416 15.8661 5.14277 14.3232 4.62298 12.1544L2.67806 12.6206ZM7.5677 19.4831C7.50616 19.4368 7.44567 19.3891 7.3863 19.3401L6.11215 20.8817C6.19506 20.9502 6.27954 21.0168 6.36552 21.0815L7.5677 19.4831ZM25.6338 12.7475C25.1842 14.6236 24.8631 15.9582 24.5064 16.9796C24.1563 17.9819 23.8009 18.5921 23.3327 19.0517L24.7338 20.4789C25.5039 19.7228 25.9901 18.797 26.3945 17.639C26.7923 16.5002 27.1386 15.0502 27.5788 13.2136L25.6338 12.7475ZM15.8093 22.4956C17.6979 22.4956 19.1886 22.4968 20.3889 22.3754C21.6092 22.252 22.6229 21.995 23.5376 21.4223L22.4762 19.7271C21.9202 20.0753 21.2439 20.2787 20.1876 20.3856C19.1112 20.4944 17.7386 20.4956 15.8093 20.4956V22.4956ZM23.3327 19.0517C23.0725 19.3071 22.7853 19.5336 22.4762 19.7271L23.5376 21.4223C23.9693 21.152 24.3703 20.8357 24.7338 20.4789L23.3327 19.0517ZM22.2875 8.50438C23.4892 8.50438 24.2987 8.50614 24.8991 8.5794C25.483 8.65065 25.7026 8.7735 25.8268 8.89074L27.1995 7.43618C26.6253 6.89433 25.9078 6.68765 25.1414 6.59412C24.3914 6.50261 23.4373 6.50438 22.2875 6.50438V8.50438ZM27.5788 13.2136C27.8467 12.0955 28.0708 11.1681 28.1566 10.4175C28.2443 9.65031 28.2106 8.9044 27.8174 8.21975L26.083 9.21563C26.1681 9.36376 26.2364 9.60591 26.1696 10.1903C26.1009 10.7913 25.9139 11.5789 25.6338 12.7475L27.5788 13.2136ZM25.8268 8.89074C25.9276 8.98591 26.014 9.09538 26.083 9.21563L27.8174 8.21975C27.6509 7.92973 27.4427 7.66572 27.1995 7.43618L25.8268 8.89074ZM3.45728 7.29159L2.47637 2.78722L0.522168 3.21278L1.50308 7.71716L3.45728 7.29159ZM19.3333 15.9167H12.0833V17.9167H19.3333V15.9167Z" fill="#0D0C0B"/>
<path d="M12.6564 25.7675C12.6564 26.47 12.0869 27.0395 11.3845 27.0395C10.682 27.0395 10.1125 26.47 10.1125 25.7675C10.1125 25.0651 10.682 24.4956 11.3845 24.4956C12.0869 24.4956 12.6564 25.0651 12.6564 25.7675Z" fill="#2D2A1E"/>
<path d="M20.288 25.7675C20.288 26.47 19.7185 27.0395 19.0161 27.0395C18.3136 27.0395 17.7441 26.47 17.7441 25.7675C17.7441 25.0651 18.3136 24.4956 19.0161 24.4956C19.7185 24.4956 20.288 25.0651 20.288 25.7675Z" fill="#2D2A1E"/>
</svg>
