<svg width="21" height="21" viewBox="0 0 21 21" fill="none" xmlns="http://www.w3.org/2000/svg">
<path d="M1.79577 5.43421L1.1118 5.58316L1.11335 5.59028L1.11504 5.59736L1.79577 5.43421ZM5.04456 14.6872L4.6238 15.2466L5.04456 14.6872ZM2.64325 8.97028L1.96253 9.13343L2.64325 8.97028ZM4.88714 14.5631L5.33309 14.0235L4.88714 14.5631ZM19.2664 9.39973L19.9471 9.56287L19.2664 9.39973ZM17.4031 14.3128L17.8935 14.8123L17.4031 14.3128ZM16.66 14.8989L16.2885 14.3056L16.66 14.8989ZM19.1989 5.91148L18.7185 6.42057L19.1989 5.91148ZM19.5155 6.31282L18.9084 6.66138L19.5155 6.31282ZM1.76942 2.02348C1.68716 1.64573 1.31425 1.40619 0.936502 1.48845C0.558756 1.57072 0.319218 1.94363 0.401479 2.32137L1.76942 2.02348ZM13.9997 12.95C14.3863 12.95 14.6997 12.6366 14.6997 12.25C14.6997 11.8634 14.3863 11.55 13.9997 11.55V12.95ZM8.74971 11.55C8.36311 11.55 8.04971 11.8634 8.04971 12.25C8.04971 12.6366 8.36311 12.95 8.74971 12.95V11.55ZM1.79577 6.13421H16.139V4.73421H1.79577V6.13421ZM11.4479 14.8658H11.0063V16.2658H11.4479V14.8658ZM3.32398 8.80713L2.47649 5.27107L1.11504 5.59736L1.96253 9.13343L3.32398 8.80713ZM11.0063 14.8658C9.39189 14.8658 8.24111 14.8647 7.34588 14.7606C6.46837 14.6587 5.91316 14.4646 5.46533 14.1278L4.6238 15.2466C5.34409 15.7884 6.17188 16.0336 7.18426 16.1513C8.17894 16.2669 9.42496 16.2658 11.0063 16.2658V14.8658ZM1.96253 9.13343C2.33109 10.6712 2.62043 11.8832 2.96468 12.8235C3.31506 13.7806 3.74648 14.5284 4.44119 15.1026L5.33309 14.0235C4.90116 13.6665 4.58305 13.1718 4.27935 12.3422C3.96952 11.4959 3.70024 10.3771 3.32398 8.80713L1.96253 9.13343ZM5.46533 14.1278C5.42046 14.094 5.37637 14.0593 5.33309 14.0235L4.44119 15.1026C4.50095 15.152 4.56183 15.2 4.6238 15.2466L5.46533 14.1278ZM18.5857 9.23658C18.2602 10.5947 18.0274 11.5625 17.7686 12.3035C17.5144 13.0312 17.2554 13.4769 16.9128 13.8133L17.8935 14.8123C18.4476 14.2684 18.7981 13.6018 19.0903 12.7651C19.3778 11.9419 19.6283 10.8933 19.9471 9.56287L18.5857 9.23658ZM11.4479 16.2658C12.816 16.2658 13.8941 16.2666 14.7617 16.1789C15.6434 16.0897 16.3734 15.9043 17.0314 15.4922L16.2885 14.3056C15.8815 14.5605 15.3877 14.7084 14.6208 14.786C13.8399 14.865 12.8445 14.8658 11.4479 14.8658V16.2658ZM16.9128 13.8133C16.7231 13.9995 16.5138 14.1646 16.2885 14.3056L17.0314 15.4922C17.3425 15.2974 17.6316 15.0695 17.8935 14.8123L16.9128 13.8133ZM16.139 6.13421C17.0086 6.13421 17.5965 6.13545 18.0331 6.18872C18.4581 6.24058 18.6231 6.33056 18.7185 6.42057L19.6794 5.40239C19.269 5.01514 18.7555 4.86648 18.2027 4.79903C17.6614 4.73298 16.9722 4.73421 16.139 4.73421V6.13421ZM19.9471 9.56287C20.1413 8.75259 20.3032 8.08269 20.3651 7.54094C20.4283 6.98763 20.4035 6.45357 20.1225 5.96427L18.9084 6.66138C18.9737 6.77512 19.0228 6.95655 18.9741 7.38195C18.9242 7.81892 18.7884 8.39095 18.5857 9.23658L19.9471 9.56287ZM18.7185 6.42057C18.7933 6.49112 18.8572 6.57225 18.9084 6.66138L20.1225 5.96427C20.0031 5.75629 19.8538 5.56698 19.6794 5.40239L18.7185 6.42057ZM2.47974 5.28527L1.76942 2.02348L0.401479 2.32137L1.1118 5.58316L2.47974 5.28527ZM13.9997 11.55H8.74971V12.95H13.9997V11.55Z" fill="#2D2A1E"/>
<path d="M9.16486 18.6593C9.16486 19.168 8.75249 19.5803 8.24381 19.5803C7.73512 19.5803 7.32275 19.168 7.32275 18.6593C7.32275 18.1506 7.73512 17.7382 8.24381 17.7382C8.75249 17.7382 9.16486 18.1506 9.16486 18.6593Z" fill="#2D2A1E"/>
<path d="M14.6912 18.6593C14.6912 19.168 14.2788 19.5803 13.7701 19.5803C13.2614 19.5803 12.8491 19.168 12.8491 18.6593C12.8491 18.1506 13.2614 17.7382 13.7701 17.7382C14.2788 17.7382 14.6912 18.1506 14.6912 18.6593Z" fill="#2D2A1E"/>
</svg>
