<svg width="38" height="38" viewBox="0 0 38 38" fill="none" xmlns="http://www.w3.org/2000/svg">
<path d="M3.25018 9.83332L2.0288 10.0993L2.03157 10.112L2.0346 10.1247L3.25018 9.83332ZM9.12895 26.5768L8.37758 27.5758L9.12895 26.5768ZM4.78373 16.2319L3.56815 16.5233L4.78373 16.2319ZM8.8441 26.3522L9.64044 25.3887L8.8441 26.3522ZM34.8637 17.009L36.0793 17.3003L34.8637 17.009ZM31.4921 25.8994L32.3678 26.7914L31.4921 25.8994ZM30.1473 26.9599L29.4839 25.9005L30.1473 26.9599ZM34.7416 10.6969L33.8837 11.606L34.7416 10.6969ZM35.3144 11.4232L34.2304 12.0456L35.3144 11.4232ZM3.18622 3.66505C3.03932 2.99051 2.37341 2.56276 1.69887 2.70966C1.02432 2.85655 0.596574 3.52246 0.743469 4.19701L3.18622 3.66505ZM25.3335 23.4166C26.0239 23.4166 26.5835 22.857 26.5835 22.1666C26.5835 21.4763 26.0239 20.9166 25.3335 20.9166V23.4166ZM15.8335 20.9166C15.1432 20.9166 14.5835 21.4763 14.5835 22.1666C14.5835 22.857 15.1432 23.4166 15.8335 23.4166V20.9166ZM3.25018 11.0833H29.2046V8.58332H3.25018V11.0833ZM20.716 26.9166H19.9169V29.4166H20.716V26.9166ZM5.9993 15.9406L4.46575 9.54198L2.0346 10.1247L3.56815 16.5233L5.9993 15.9406ZM19.9169 26.9166C16.9959 26.9166 14.9124 26.9147 13.2913 26.7263C11.7018 26.5415 10.6939 26.1898 9.88032 25.5778L8.37758 27.5758C9.67772 28.5537 11.1724 28.9968 13.0027 29.2096C14.8014 29.4186 17.055 29.4166 19.9169 29.4166V26.9166ZM3.56815 16.5233C4.23516 19.3063 4.75849 21.4983 5.38101 23.1987C6.01446 24.929 6.79378 26.2793 8.04776 27.3157L9.64044 25.3887C8.85572 24.7401 8.27874 23.8419 7.72863 22.3393C7.16758 20.8067 6.68007 18.781 5.9993 15.9406L3.56815 16.5233ZM9.88032 25.5778C9.79893 25.5166 9.71895 25.4536 9.64044 25.3887L8.04776 27.3157C8.15569 27.4049 8.26566 27.4916 8.37758 27.5758L9.88032 25.5778ZM33.6481 16.7177C33.0592 19.1748 32.6378 20.9271 32.1691 22.269C31.7087 23.587 31.239 24.3961 30.6164 25.0074L32.3678 26.7914C33.3678 25.8096 34.0009 24.606 34.5293 23.0933C35.0492 21.6045 35.5022 19.7081 36.0793 17.3003L33.6481 16.7177ZM20.716 29.4166C23.1919 29.4166 25.1417 29.4181 26.7107 29.2595C28.3048 29.0983 29.6228 28.7631 30.8106 28.0194L29.4839 25.9005C28.7445 26.3635 27.8482 26.6317 26.4591 26.7722C25.0449 26.9152 23.2427 26.9166 20.716 26.9166V29.4166ZM30.6164 25.0074C30.2723 25.3451 29.8926 25.6446 29.4839 25.9005L30.8106 28.0194C31.3726 27.6676 31.8947 27.2558 32.3678 26.7914L30.6164 25.0074ZM29.2046 11.0833C30.7777 11.0833 31.8428 11.0855 32.634 11.1821C33.4046 11.2761 33.7074 11.4396 33.8837 11.606L35.5996 9.78785C34.8608 9.09065 33.9356 8.82235 32.9368 8.70047C31.9587 8.58111 30.7128 8.58332 29.2046 8.58332V11.0833ZM36.0793 17.3003C36.4308 15.8337 36.7233 14.6227 36.8352 13.6436C36.9495 12.6439 36.9042 11.6817 36.3984 10.8008L34.2304 12.0456C34.3511 12.2559 34.4396 12.5884 34.3514 13.3597C34.2609 14.1516 34.0148 15.1879 33.6481 16.7177L36.0793 17.3003ZM33.8837 11.606C34.0202 11.7348 34.137 11.8829 34.2304 12.0456L36.3984 10.8008C36.1831 10.4258 35.914 10.0846 35.5996 9.78785L33.8837 11.606ZM4.47155 9.56734L3.18622 3.66505L0.743469 4.19701L2.0288 10.0993L4.47155 9.56734ZM25.3335 20.9166H15.8335V23.4166H25.3335V20.9166Z" fill="white"/>
<path d="M14.9167 36.681C16.5275 36.681 17.8333 35.3752 17.8333 33.7643C17.8333 32.1535 16.5275 30.8477 14.9167 30.8477C13.3058 30.8477 12 32.1535 12 33.7643C12 35.3752 13.3058 36.681 14.9167 36.681ZM24.9167 36.681C26.5275 36.681 27.8333 35.3752 27.8333 33.7643C27.8333 32.1535 26.5275 30.8477 24.9167 30.8477C23.3058 30.8477 22 32.1535 22 33.7643C22 35.3752 23.3058 36.681 24.9167 36.681Z" stroke="white" stroke-width="2.5"/>
</svg>
