<svg width="19" height="12" viewBox="0 0 19 12" fill="none" xmlns="http://www.w3.org/2000/svg">
<path fill-rule="evenodd" clip-rule="evenodd" d="M11.2564 3.75247C11.5836 4.0797 11.5836 4.61024 11.2564 4.93747L4.97592 11.2179C4.62688 11.567 4.06097 11.567 3.71193 11.2179L0.591453 8.09745C0.264226 7.77022 0.264226 7.23968 0.591452 6.91245C0.918679 6.58523 1.44922 6.58523 1.77644 6.91245L4.34393 9.47994L10.0714 3.75247C10.3986 3.42525 10.9292 3.42525 11.2564 3.75247Z" fill="#828282"/>
<path fill-rule="evenodd" clip-rule="evenodd" d="M18.2564 3.75247C18.5836 4.0797 18.5836 4.61024 18.2564 4.93747L11.9759 11.2179C11.6269 11.567 11.061 11.567 10.7119 11.2179L7.59145 8.09745C7.26423 7.77022 7.26423 7.23968 7.59145 6.91245C7.91868 6.58523 8.44922 6.58523 8.77644 6.91245L11.3439 9.47994L17.0714 3.75247C17.3986 3.42525 17.9292 3.42525 18.2564 3.75247Z" fill="#828282"/>
</svg>
