<svg width="25" height="19" viewBox="0 0 25 19" fill="none" xmlns="http://www.w3.org/2000/svg">
<path d="M5.32947 18.1006C5.92034 18.1006 6.48702 17.8657 6.90483 17.4475C7.32265 17.0293 7.55737 16.4621 7.55737 15.8706C7.55737 15.2792 7.32265 14.712 6.90483 14.2938C6.48702 13.8756 5.92034 13.6406 5.32947 13.6406C4.73859 13.6406 4.17191 13.8756 3.7541 14.2938C3.33629 14.712 3.10156 15.2792 3.10156 15.8706C3.10156 16.4621 3.33629 17.0293 3.7541 17.4475C4.17191 17.8657 4.73859 18.1006 5.32947 18.1006V18.1006Z" stroke="#2D2A1E" stroke-width="1.4" stroke-linejoin="round"/>
<path d="M17.2279 18.1C17.8188 18.1 18.3855 17.8651 18.8033 17.4469C19.2211 17.0287 19.4558 16.4614 19.4558 15.87C19.4558 15.2786 19.2211 14.7114 18.8033 14.2932C18.3855 13.875 17.8188 13.64 17.2279 13.64C16.637 13.64 16.0704 13.875 15.6525 14.2932C15.2347 14.7114 15 15.2786 15 15.87C15 16.4614 15.2347 17.0287 15.6525 17.4469C16.0704 17.8651 16.637 18.1 17.2279 18.1V18.1Z" stroke="#2D2A1E" stroke-width="1.4" stroke-linejoin="round"/>
<path d="M3.38249 16.1621V16.1621C2.06668 16.1621 1 15.0954 1 13.7796V5C1 2.79086 2.79086 1 5 1H11.9757C14.1848 1 15.9757 2.79086 15.9757 5V12.1621C15.9757 14.3712 14.1848 16.1621 11.9757 16.1621H8.22964" stroke="#2D2A1E" stroke-width="1.4" stroke-linecap="round" stroke-linejoin="round"/>
<path d="M16.0781 5.46484V5.46484C18.6049 5.46484 20.9562 6.75706 22.3107 8.89012L22.7506 9.58294C23.2023 10.2942 23.4421 11.1194 23.4421 11.962V13.8791C23.4421 14.9837 22.5467 15.8791 21.4421 15.8791H20.2591" stroke="#2D2A1E" stroke-width="1.4" stroke-linecap="round" stroke-linejoin="round"/>
</svg>
