<svg width="33" height="25" viewBox="0 0 33 25" fill="none" xmlns="http://www.w3.org/2000/svg">
<path d="M6.98364 24.1859C7.79982 24.1859 8.58257 23.8561 9.15969 23.2691C9.73681 22.6821 10.061 21.886 10.061 21.0558C10.061 20.2257 9.73681 19.4296 9.15969 18.8426C8.58257 18.2556 7.79982 17.9258 6.98364 17.9258C6.16747 17.9258 5.38472 18.2556 4.8076 18.8426C4.23047 19.4296 3.90625 20.2257 3.90625 21.0558C3.90625 21.886 4.23047 22.6821 4.8076 23.2691C5.38472 23.8561 6.16747 24.1859 6.98364 24.1859V24.1859Z" stroke="#111111" stroke-width="1.5" stroke-linejoin="round"/>
<path d="M24.4211 24.1859C25.2373 24.1859 26.0201 23.8561 26.5972 23.2691C27.1743 22.6821 27.4985 21.886 27.4985 21.0558C27.4985 20.2257 27.1743 19.4296 26.5972 18.8426C26.0201 18.2556 25.2373 17.9258 24.4211 17.9258C23.605 17.9258 22.8222 18.2556 22.2451 18.8426C21.668 19.4296 21.3438 20.2257 21.3438 21.0558C21.3438 21.886 21.668 22.6821 22.2451 23.2691C22.8222 23.8561 23.605 24.1859 24.4211 24.1859V24.1859Z" stroke="#111111" stroke-width="1.5" stroke-linejoin="round"/>
<path d="M4.29093 21.2581V21.2581C2.4734 21.2581 1 19.7847 1 17.9672V5.1875C1 2.97836 2.79086 1.1875 5 1.1875H17.6858C19.895 1.1875 21.6858 2.97836 21.6858 5.1875V17.2581C21.6858 19.4673 19.895 21.2581 17.6858 21.2581H10.9863" stroke="#111111" stroke-width="1.5" stroke-linecap="round" stroke-linejoin="round"/>
<path d="M21.8281 7.09375H22.0628C25.4163 7.09375 28.5465 8.77469 30.3989 11.5702L31.168 12.7311C31.7106 13.5499 32 14.5105 32 15.4928V18.8795C32 19.9841 31.1046 20.8795 30 20.8795H27.6032" stroke="#111111" stroke-width="1.5" stroke-linecap="round" stroke-linejoin="round"/>
</svg>
