<svg width="33" height="25" viewBox="0 0 33 25" fill="none" xmlns="http://www.w3.org/2000/svg">
<path d="M6.98364 24C7.79982 24 8.58257 23.6702 9.15969 23.0832C9.73681 22.4962 10.061 21.7001 10.061 20.8699C10.061 20.0398 9.73681 19.2436 9.15969 18.6566C8.58257 18.0696 7.79982 17.7399 6.98364 17.7399C6.16747 17.7399 5.38472 18.0696 4.8076 18.6566C4.23047 19.2436 3.90625 20.0398 3.90625 20.8699C3.90625 21.7001 4.23047 22.4962 4.8076 23.0832C5.38472 23.6702 6.16747 24 6.98364 24V24Z" stroke="#0D0C0B" stroke-width="2" stroke-linejoin="round"/>
<path d="M24.4211 24C25.2373 24 26.0201 23.6702 26.5972 23.0832C27.1743 22.4962 27.4985 21.7001 27.4985 20.8699C27.4985 20.0398 27.1743 19.2436 26.5972 18.6566C26.0201 18.0696 25.2373 17.7399 24.4211 17.7399C23.605 17.7399 22.8222 18.0696 22.2451 18.6566C21.668 19.2436 21.3438 20.0398 21.3438 20.8699C21.3438 21.7001 21.668 22.4962 22.2451 23.0832C22.8222 23.6702 23.605 24 24.4211 24V24Z" stroke="#0D0C0B" stroke-width="2" stroke-linejoin="round"/>
<path d="M4.29093 21.0706V21.0706C2.4734 21.0706 1 19.5972 1 17.7797V5C1 2.79086 2.79086 1 5 1H17.6858C19.895 1 21.6858 2.79086 21.6858 5V17.0706C21.6858 19.2798 19.895 21.0706 17.6858 21.0706H10.9863" stroke="#0D0C0B" stroke-width="2" stroke-linecap="round" stroke-linejoin="round"/>
<path d="M21.8281 6.9082H22.0628C25.4163 6.9082 28.5465 8.58914 30.3989 11.3847L31.168 12.5455C31.7106 13.3644 32 14.325 32 15.3073V18.694C32 19.7985 31.1046 20.694 30 20.694H27.6032" stroke="#0D0C0B" stroke-width="2" stroke-linecap="round" stroke-linejoin="round"/>
</svg>
