<svg width="23" height="26" viewBox="0 0 23 26" fill="none" xmlns="http://www.w3.org/2000/svg">
<path d="M3.40459 23.2193L3.99237 22.4102L3.40459 23.2193ZM2.11407 21.9287L2.92308 21.341L2.11407 21.9287ZM20.8859 21.9287L20.0769 21.341L20.8859 21.9287ZM19.5954 23.2193L19.0076 22.4102L19.5954 23.2193ZM19.5954 2.11407L19.0076 2.92308L19.5954 2.11407ZM20.8859 3.40459L20.0769 3.99237L20.8859 3.40459ZM3.40459 2.11407L3.99237 2.92308L3.40459 2.11407ZM2.11407 3.40459L2.92308 3.99237L2.11407 3.40459ZM6.83333 16.3333C6.28105 16.3333 5.83333 16.781 5.83333 17.3333C5.83333 17.8856 6.28105 18.3333 6.83333 18.3333V16.3333ZM16.1667 18.3333C16.719 18.3333 17.1667 17.8856 17.1667 17.3333C17.1667 16.781 16.719 16.3333 16.1667 16.3333V18.3333ZM6.83333 11.6667C6.28105 11.6667 5.83333 12.1144 5.83333 12.6667C5.83333 13.219 6.28105 13.6667 6.83333 13.6667V11.6667ZM16.1667 13.6667C16.719 13.6667 17.1667 13.219 17.1667 12.6667C17.1667 12.1144 16.719 11.6667 16.1667 11.6667V13.6667ZM6.83333 7C6.28105 7 5.83333 7.44771 5.83333 8C5.83333 8.55228 6.28105 9 6.83333 9V7ZM16.1667 9C16.719 9 17.1667 8.55228 17.1667 8C17.1667 7.44771 16.719 7 16.1667 7V9ZM21 11.5V13.8333H23V11.5H21ZM2 13.8333V11.5H0V13.8333H2ZM11.5 23.3333C9.29038 23.3333 7.71349 23.332 6.49452 23.1999C5.29426 23.0699 4.56018 22.8228 3.99237 22.4102L2.8168 24.0283C3.78237 24.7298 4.90866 25.0398 6.27909 25.1883C7.6308 25.3347 9.33493 25.3333 11.5 25.3333V23.3333ZM0 13.8333C0 15.9984 -0.00137258 17.7025 0.145076 19.0542C0.293553 20.4247 0.603522 21.551 1.30505 22.5165L2.92308 21.341C2.51055 20.7732 2.26348 20.0391 2.13344 18.8388C2.00137 17.6198 2 16.043 2 13.8333H0ZM3.99237 22.4102C3.58205 22.1121 3.2212 21.7513 2.92308 21.341L1.30505 22.5165C1.72653 23.0966 2.23669 23.6068 2.8168 24.0283L3.99237 22.4102ZM21 13.8333C21 16.043 20.9986 17.6198 20.8666 18.8388C20.7365 20.0391 20.4895 20.7732 20.0769 21.341L21.695 22.5165C22.3965 21.551 22.7064 20.4247 22.8549 19.0542C23.0014 17.7025 23 15.9984 23 13.8333H21ZM11.5 25.3333C13.6651 25.3333 15.3692 25.3347 16.7209 25.1883C18.0913 25.0398 19.2176 24.7298 20.1832 24.0283L19.0076 22.4102C18.4398 22.8228 17.7057 23.0699 16.5055 23.1999C15.2865 23.332 13.7096 23.3333 11.5 23.3333V25.3333ZM20.0769 21.341C19.7788 21.7513 19.418 22.1121 19.0076 22.4102L20.1832 24.0283C20.7633 23.6068 21.2735 23.0966 21.695 22.5165L20.0769 21.341ZM11.5 2C13.7096 2 15.2865 2.00137 16.5055 2.13344C17.7057 2.26348 18.4398 2.51055 19.0076 2.92308L20.1832 1.30505C19.2176 0.603522 18.0913 0.293553 16.7209 0.145076C15.3692 -0.00137258 13.6651 0 11.5 0V2ZM23 11.5C23 9.33493 23.0014 7.6308 22.8549 6.27909C22.7064 4.90866 22.3965 3.78237 21.695 2.8168L20.0769 3.99237C20.4895 4.56018 20.7365 5.29426 20.8666 6.49452C20.9986 7.71349 21 9.29038 21 11.5H23ZM19.0076 2.92308C19.418 3.2212 19.7788 3.58205 20.0769 3.99237L21.695 2.8168C21.2735 2.23669 20.7633 1.72653 20.1832 1.30505L19.0076 2.92308ZM11.5 0C9.33493 0 7.6308 -0.00137258 6.27909 0.145076C4.90866 0.293553 3.78237 0.603522 2.8168 1.30505L3.99237 2.92308C4.56018 2.51055 5.29426 2.26348 6.49452 2.13344C7.71349 2.00137 9.29038 2 11.5 2V0ZM2 11.5C2 9.29038 2.00137 7.71349 2.13344 6.49452C2.26348 5.29426 2.51055 4.56018 2.92308 3.99237L1.30505 2.8168C0.603522 3.78237 0.293553 4.90866 0.145076 6.27909C-0.00137258 7.6308 0 9.33493 0 11.5H2ZM2.8168 1.30505C2.23669 1.72653 1.72653 2.23669 1.30505 2.8168L2.92308 3.99237C3.2212 3.58205 3.58205 3.2212 3.99237 2.92308L2.8168 1.30505ZM6.83333 18.3333H16.1667V16.3333H6.83333V18.3333ZM6.83333 13.6667H16.1667V11.6667H6.83333V13.6667ZM6.83333 9H16.1667V7H6.83333V9Z" fill="#59A750"/>
</svg>
