<svg width="28" height="29" viewBox="0 0 28 29" fill="none" xmlns="http://www.w3.org/2000/svg">
<path d="M10.5002 11L10.8914 9.82641C11.7122 7.36385 14.961 6.83665 16.5185 8.91326C17.4308 10.1297 17.3671 11.8187 16.3658 12.963L15.2934 14.1886C14.4597 15.1415 14.0002 16.3645 14.0002 17.6306V18M25.6668 14.5C25.6668 20.9433 20.4435 26.1666 14.0002 26.1666C7.55684 26.1666 2.3335 20.9433 2.3335 14.5C2.3335 8.05666 7.55684 2.83331 14.0002 2.83331C20.4435 2.83331 25.6668 8.05666 25.6668 14.5Z" stroke="#0D0C0B" stroke-width="2" stroke-linecap="round"/>
<path d="M15.1668 21.5C15.1668 22.1443 14.6445 22.6666 14.0002 22.6666C13.3558 22.6666 12.8335 22.1443 12.8335 21.5C12.8335 20.8556 13.3558 20.3333 14.0002 20.3333C14.6445 20.3333 15.1668 20.8556 15.1668 21.5Z" fill="#4A442D"/>
</svg>
