<svg width="21" height="21" viewBox="0 0 21 21" fill="none" xmlns="http://www.w3.org/2000/svg">
<path d="M7.68766 7.68748L7.97407 6.82826C8.57505 5.02531 10.9536 4.63932 12.0939 6.1597C12.7619 7.0503 12.7153 8.28689 11.9822 9.12469L11.197 10.022C10.5866 10.7196 10.2502 11.6151 10.2502 12.542V12.8125M18.7918 10.25C18.7918 14.9674 14.9676 18.7916 10.2502 18.7916C5.53273 18.7916 1.7085 14.9674 1.7085 10.25C1.7085 5.53255 5.53273 1.70831 10.2502 1.70831C14.9676 1.70831 18.7918 5.53255 18.7918 10.25Z" stroke="#2D2A1E" stroke-width="1.4" stroke-linecap="round"/>
<path d="M11.1043 15.375C11.1043 15.8467 10.7219 16.2291 10.2502 16.2291C9.77842 16.2291 9.396 15.8467 9.396 15.375C9.396 14.9032 9.77842 14.5208 10.2502 14.5208C10.7219 14.5208 11.1043 14.9032 11.1043 15.375Z" fill="#4A442D"/>
</svg>
