<svg width="21" height="21" viewBox="0 0 21 21" fill="none" xmlns="http://www.w3.org/2000/svg">
<path d="M10.5 12.3988C8.63627 12.3988 7.11377 10.885 7.11377 9.01251C7.11377 7.14001 8.63627 5.63501 10.5 5.63501C12.3638 5.63501 13.8863 7.14876 13.8863 9.02126C13.8863 10.8938 12.3638 12.3988 10.5 12.3988ZM10.5 6.94751C9.36252 6.94751 8.42627 7.87501 8.42627 9.02126C8.42627 10.1675 9.35377 11.095 10.5 11.095C11.6463 11.095 12.5738 10.1675 12.5738 9.02126C12.5738 7.87501 11.6375 6.94751 10.5 6.94751Z" fill="#2D2A1E"/>
<path d="M10.5 19.915C9.20497 19.915 7.90122 19.425 6.88622 18.4537C4.30497 15.9687 1.45247 12.005 2.52872 7.28875C3.49997 3.01 7.23622 1.09375 10.5 1.09375C10.5 1.09375 10.5 1.09375 10.5087 1.09375C13.7725 1.09375 17.5087 3.01 18.48 7.2975C19.5475 12.0137 16.695 15.9687 14.1137 18.4537C13.0987 19.425 11.795 19.915 10.5 19.915ZM10.5 2.40625C7.95372 2.40625 4.68122 3.7625 3.81497 7.5775C2.86997 11.6987 5.45997 15.2512 7.80497 17.5C9.31872 18.9612 11.69 18.9612 13.2037 17.5C15.54 15.2512 18.13 11.6987 17.2025 7.5775C16.3275 3.7625 13.0462 2.40625 10.5 2.40625Z" fill="#2D2A1E"/>
</svg>
