<svg width="27" height="27" viewBox="0 0 27 27" fill="none" xmlns="http://www.w3.org/2000/svg">
<path fill-rule="evenodd" clip-rule="evenodd" d="M8.47778 1.84277C7.11883 0.594076 5.03001 0.594076 3.67106 1.84277C3.61541 1.89391 3.556 1.95334 3.47884 2.03051L2.31958 3.18977C1.15306 4.35629 0.663367 6.03793 1.02124 7.64836C3.0517 16.7854 10.1876 23.9213 19.3246 25.9518C20.9351 26.3096 22.6167 25.8199 23.7832 24.6534L24.9424 23.4943C25.0196 23.417 25.0791 23.3576 25.1302 23.3019C26.3789 21.943 26.3789 19.8542 25.1302 18.4952C25.0791 18.4395 25.0196 18.3801 24.9424 18.3029L23.0446 16.4051C21.7269 15.0875 19.7371 14.7106 18.0289 15.4552C17.051 15.8815 15.9118 15.6657 15.1575 14.9114L12.0616 11.8155C11.3073 11.0612 11.0915 9.922 11.5178 8.94407C12.2624 7.23589 11.8855 5.24604 10.5679 3.92841L8.67002 2.03052C8.59286 1.95335 8.53344 1.89392 8.47778 1.84277ZM4.98199 3.26944C5.59969 2.70185 6.54916 2.70185 7.16686 3.26944C7.18818 3.28903 7.21613 3.31667 7.31438 3.41493L9.19789 5.29843C9.95222 6.05277 10.168 7.19195 9.74169 8.16988C8.9971 9.87806 9.37394 11.8679 10.6916 13.1855L13.7874 16.2814C15.1051 17.599 17.0949 17.9759 18.8031 17.2313C19.781 16.805 20.9202 17.0208 21.6746 17.7751L23.5581 19.6586C23.6563 19.7569 23.684 19.7848 23.7035 19.8061C24.2711 20.4238 24.2711 21.3733 23.7035 21.991C23.684 22.0123 23.6563 22.0403 23.5581 22.1385L22.4132 23.2834C21.7151 23.9815 20.7087 24.2746 19.7449 24.0604C11.3422 22.1931 4.77987 15.6308 2.9126 7.22806C2.69843 6.26429 2.99149 5.2579 3.6896 4.55979L4.83446 3.41493C4.93272 3.31667 4.96066 3.28903 4.98199 3.26944Z" fill="#0D0C0B"/>
</svg>
