<svg width="38" height="38" viewBox="0 0 38 38" fill="none" xmlns="http://www.w3.org/2000/svg">
<circle cx="19" cy="19" r="18.25" stroke="white" stroke-width="1.5"/>
<path fill-rule="evenodd" clip-rule="evenodd" d="M19.6133 19.6136L25.1889 19.6136C25.8047 19.6136 26.304 19.1144 26.304 18.4985C26.304 17.8827 25.8047 17.3834 25.1889 17.3834L19.6133 17.3834L19.6133 11.8078C19.6133 11.192 19.114 10.6927 18.4982 10.6927C17.8823 10.6927 17.3831 11.192 17.3831 11.8078L17.3831 17.3834L11.8075 17.3834C11.1916 17.3834 10.6924 17.8827 10.6924 18.4985C10.6924 19.1144 11.1916 19.6137 11.8075 19.6137L17.3831 19.6136L17.3831 25.1892C17.3831 25.8051 17.8823 26.3043 18.4982 26.3043C19.114 26.3043 19.6133 25.8051 19.6133 25.1892L19.6133 19.6136Z" fill="white"/>
</svg>
