<svg width="26" height="25" viewBox="0 0 26 25" fill="none" xmlns="http://www.w3.org/2000/svg">
<path d="M13.4885 18.6409C13.4885 18.1749 13.1107 17.7971 12.6447 17.7971C12.1787 17.7971 11.801 18.1749 11.801 18.6409V20.8909C11.801 21.3569 12.1787 21.7346 12.6447 21.7346C13.1107 21.7346 13.4885 21.3569 13.4885 20.8909V18.6409Z" fill="#111111"/>
<path fill-rule="evenodd" clip-rule="evenodd" d="M12.8819 0.00434835C12.7238 -0.00144945 12.5656 -0.00144945 12.4076 0.00434835C11.3643 0.0426217 10.4248 0.397388 9.39476 0.987947C8.39096 1.56345 7.23532 2.40309 5.76901 3.46843L5.6893 3.52634C4.22298 4.59167 3.06732 5.4313 2.20978 6.20814C1.32982 7.00529 0.702112 7.78914 0.343314 8.76955C0.288962 8.91807 0.240074 9.06853 0.19675 9.22063C-0.0892476 10.2247 -0.042152 11.2278 0.201197 12.3899C0.438344 13.5225 0.879772 14.881 1.43986 16.6048L1.47031 16.6985C2.03038 18.4222 2.4718 19.7808 2.94561 20.8364C3.43183 21.9196 3.98334 22.7588 4.80489 23.403C4.92934 23.5006 5.05733 23.5936 5.1886 23.6818C6.01514 24.2372 6.93459 24.5042 8.04325 24.6385C9.22263 24.7814 10.6972 24.7814 12.5883 24.7813H12.7012C14.5923 24.7814 16.0668 24.7814 17.2462 24.6385C18.3549 24.5042 19.2743 24.2372 20.1008 23.6818C20.2321 23.5936 20.3601 23.5006 20.4846 23.403C21.3061 22.7588 21.8576 21.9196 22.3438 20.8364C22.8177 19.7808 23.2591 18.4222 23.8192 16.6984L23.8496 16.6047C24.4097 14.8811 24.8511 13.5224 25.0882 12.3899C25.3316 11.2278 25.3787 10.2247 25.0927 9.22063C25.0494 9.06853 25.0005 8.91807 24.9461 8.76955C24.5873 7.78914 23.9596 7.00529 23.0797 6.20814C22.2221 5.4313 21.0665 4.59167 19.6001 3.52633L19.5204 3.46841C18.0541 2.40308 16.8985 1.56345 15.8947 0.987947C14.8646 0.397389 13.9252 0.0426217 12.8819 0.00434835ZM12.4694 1.69071C12.5863 1.68643 12.7032 1.68643 12.82 1.69071C13.4899 1.71529 14.157 1.93688 15.0554 2.45191C15.9708 2.97678 17.0535 3.76196 18.5684 4.86261C20.0833 5.96326 21.1646 6.75029 21.9467 7.45878C22.7141 8.15397 23.131 8.72001 23.3614 9.3495C23.4016 9.45927 23.4377 9.57048 23.4697 9.68291C23.6534 10.3276 23.6488 11.0306 23.4366 12.0441C23.2203 13.077 22.8081 14.3492 22.2294 16.1301C21.6508 17.911 21.2364 19.1826 20.8043 20.1454C20.3803 21.09 19.9708 21.6615 19.4433 22.0751C19.3513 22.1472 19.2567 22.2159 19.1597 22.2811C18.8272 22.5045 18.4542 22.6704 17.9885 22.7915V18.6409C17.9885 15.6896 15.596 13.2971 12.6447 13.2971C9.69345 13.2971 7.30097 15.6896 7.30097 18.6409V22.7915C6.83527 22.6704 6.46225 22.5045 6.12977 22.2811C6.03274 22.2159 5.93814 22.1472 5.84616 22.0751C5.31867 21.6615 4.90917 21.09 4.48514 20.1454C4.053 19.1826 3.63864 17.911 3.05999 16.1301C2.48135 14.3492 2.06916 13.077 1.85287 12.0441C1.64065 11.0306 1.63607 10.3276 1.8197 9.68291C1.85172 9.57048 1.88785 9.45927 1.92803 9.3495C2.1584 8.72001 2.57531 8.15397 3.34273 7.45878C4.12482 6.75029 5.20611 5.96326 6.72103 4.86261C8.23595 3.76196 9.3186 2.97678 10.2341 2.45191C11.1324 1.93688 11.7996 1.71529 12.4694 1.69071ZM12.6447 14.9846C14.664 14.9846 16.301 16.6216 16.301 18.6409V23.0307C15.3521 23.093 14.1784 23.0938 12.6447 23.0938C11.111 23.0938 9.9373 23.093 8.98847 23.0307V18.6409C8.98847 16.6216 10.6254 14.9846 12.6447 14.9846Z" fill="#111111"/>
</svg>
