<svg width="37" height="38" viewBox="0 0 37 38" fill="none" xmlns="http://www.w3.org/2000/svg">
<path d="M8.30015 31.6222L7.80256 32.7689L8.30015 31.6222ZM4.12843 27.2518L2.96599 27.7114L4.12843 27.2518ZM30.7049 27.2518L31.8673 27.7114L30.7049 27.2518ZM26.5332 31.6222L27.0308 32.7689L26.5332 31.6222ZM3.54167 16.0494L4.78676 16.16L4.84794 15.4715L4.29728 15.0536L3.54167 16.0494ZM28.9792 9.11188V7.86188H28.9792L28.9792 9.11188ZM18.6003 7.39923L19.4842 8.28311L18.6003 7.39923ZM21.8707 4.12886L20.9868 3.24498V3.24498L21.8707 4.12886ZM27.3213 4.12886L26.4374 5.01274V5.01274L27.3213 4.12886ZM27.7204 9.11186L27.7205 10.3619L28.3584 10.3618L28.7327 9.84521L27.7204 9.11186ZM16.4749 7.39925L17.3587 6.51537L16.4749 7.39925ZM13.2045 4.12888L12.3206 5.01276V5.01276L13.2045 4.12888ZM7.75388 4.12888L8.63776 5.01276V5.01276L7.75388 4.12888ZM17.4167 30.6952L18.6667 30.6952V30.6952H17.4167ZM3.4916 16.0114L2.72471 16.9985H2.72471L3.4916 16.0114ZM31.1921 16.122L30.4735 15.0992L31.1921 16.122ZM27.3213 9.11188L27.3213 10.3619L27.3213 9.11188ZM11.6354 9.11189L11.6354 10.3619L11.6354 9.11189ZM15.1042 30.9869C13.2904 30.9869 11.9957 30.9861 10.9756 30.9132C9.96796 30.8412 9.32279 30.7033 8.79774 30.4755L7.80256 32.7689C8.69407 33.1557 9.6551 33.3252 10.7974 33.4069C11.9273 33.4876 13.3263 33.4869 15.1042 33.4869V30.9869ZM2.29172 20.1238C2.29172 21.9888 2.29109 23.4473 2.36768 24.6235C2.44493 25.8099 2.60456 26.7973 2.96599 27.7114L5.29086 26.7922C5.06554 26.2223 4.93181 25.527 4.86239 24.4611C4.79232 23.385 4.79172 22.0215 4.79172 20.1238H2.29172ZM8.79774 30.4755C7.22406 29.7926 5.95595 28.4743 5.29086 26.7922L2.96599 27.7114C3.8656 29.9867 5.59872 31.8125 7.80256 32.7689L8.79774 30.4755ZM30.0417 20.1238C30.0417 22.0214 30.041 23.3849 29.971 24.461C29.9015 25.527 29.7678 26.2223 29.5425 26.7922L31.8673 27.7114C32.2288 26.7973 32.3884 25.8099 32.4657 24.6235C32.5423 23.4473 32.5417 21.9888 32.5417 20.1238H30.0417ZM19.7292 33.4869C21.5071 33.4869 22.9061 33.4876 24.0359 33.4069C25.1782 33.3252 26.1393 33.1557 27.0308 32.7689L26.0356 30.4755C25.5105 30.7033 24.8654 30.8412 23.8577 30.9132C22.8376 30.9861 21.5429 30.9869 19.7292 30.9869V33.4869ZM29.5425 26.7922C28.8774 28.4743 27.6093 29.7926 26.0356 30.4755L27.0308 32.7689C29.2346 31.8125 30.9677 29.9867 31.8673 27.7114L29.5425 26.7922ZM4.79172 20.1238C4.79172 17.8408 4.68653 17.2881 4.78676 16.16L2.29657 15.9388C2.18487 17.196 2.29172 18.1531 2.29172 20.1238H4.79172ZM28.9792 10.3619C30.4174 10.3619 31.5833 11.5278 31.5833 12.966H34.0833C34.0833 10.1471 31.7981 7.86188 28.9792 7.86188V10.3619ZM5.85417 7.86188C3.03521 7.86188 0.75 10.1471 0.75 12.966H3.25C3.25 11.5278 4.41593 10.3619 5.85417 10.3619V7.86188ZM19.4842 8.28311L22.7546 5.01274L20.9868 3.24498L17.7164 6.51535L19.4842 8.28311ZM22.7546 5.01274C23.7715 3.99575 25.4204 3.99575 26.4374 5.01274L28.2052 3.24498C26.2119 1.25167 22.9801 1.25167 20.9868 3.24498L22.7546 5.01274ZM17.7164 6.51534C17.2338 6.99799 16.4773 7.80041 16.2103 8.78464L18.6231 9.43916C18.6964 9.16874 18.9817 8.78561 19.4842 8.28311L17.7164 6.51534ZM26.4374 5.01274C27.3539 5.92924 27.4451 7.36125 26.7081 8.3785L28.7327 9.84521C30.1789 7.84891 30.004 5.04381 28.2052 3.24498L26.4374 5.01274ZM17.3587 6.51537L14.0884 3.245L12.3206 5.01276L15.591 8.28313L17.3587 6.51537ZM14.0884 3.245C12.0951 1.2517 8.8633 1.2517 6.87 3.245L8.63776 5.01276C9.65475 3.99577 11.3036 3.99577 12.3206 5.01276L14.0884 3.245ZM15.591 8.28313C15.8862 8.57832 16.0787 8.95434 16.2103 9.43916L18.6231 8.78464C18.4142 8.01481 18.0487 7.20532 17.3587 6.51537L15.591 8.28313ZM6.87 3.245C5.07117 5.04383 4.89627 7.84893 6.34252 9.84523L8.36706 8.37852C7.6301 7.36127 7.72126 5.92926 8.63776 5.01276L6.87 3.245ZM16.1667 9.1119L16.1667 30.6952L18.6667 30.6952V9.1119L16.1667 9.1119ZM7.35479 10.3619L17.4167 10.3619L17.4167 7.8619L7.35479 7.86188L7.35479 10.3619ZM5.85417 15.5702C5.2513 15.5702 4.69944 15.3669 4.25849 15.0243L2.72471 16.9985C3.58878 17.6698 4.67647 18.0702 5.85417 18.0702V15.5702ZM4.25849 15.0243C3.64256 14.5458 3.25 13.8021 3.25 12.966H0.75C0.75 14.6067 1.52543 16.0668 2.72471 16.9985L4.25849 15.0243ZM4.29728 15.0536L4.24721 15.0156L2.73598 17.0072L2.78605 17.0452L4.29728 15.0536ZM19.7292 30.9869H17.4167V33.4869H19.7292V30.9869ZM17.4167 30.9869H15.1042V33.4869H17.4167V30.9869ZM16.1667 30.6952L16.1667 32.2369L18.6667 32.2369V30.6952L16.1667 30.6952ZM28.9792 15.5702H17.4167V18.0702H28.9792V15.5702ZM17.4167 15.5702H5.85417V18.0702H17.4167V15.5702ZM31.5833 12.966C31.5833 13.8468 31.1472 14.6259 30.4735 15.0992L31.9106 17.1449C33.222 16.2236 34.0833 14.6955 34.0833 12.966H31.5833ZM30.4735 15.0992C30.0508 15.3961 29.5372 15.5702 28.9792 15.5702V18.0702C30.0681 18.0702 31.0807 17.7278 31.9106 17.1449L30.4735 15.0992ZM32.5417 20.1238C32.5417 18.0512 32.5425 17.229 32.4374 16.0143L29.9467 16.2297C30.0408 17.3179 30.0417 18.0297 30.0417 20.1238H32.5417ZM17.4167 10.3619L27.3213 10.3619L27.3213 7.86188L17.4167 7.8619L17.4167 10.3619ZM27.3214 10.3619L27.7205 10.3619L27.7203 7.86186L27.3212 7.86188L27.3214 10.3619ZM27.3213 10.3619L28.9792 10.3619L28.9792 7.86188L27.3213 7.86188L27.3213 10.3619ZM7.35479 7.86188H5.85417V10.3619H7.35479V7.86188ZM5.85416 10.3619L11.6354 10.3619L11.6354 7.86189L5.85417 7.86188L5.85416 10.3619ZM11.6354 10.3619L17.4167 10.3619L17.4167 7.8619L11.6354 7.86189L11.6354 10.3619ZM7.35479 10.3619L11.6354 10.3619L11.6354 7.86189L7.35479 7.86188L7.35479 10.3619ZM17.4167 10.3619L27.7204 10.3619L27.7204 7.86186L17.4167 7.8619L17.4167 10.3619Z" fill="white"/>
</svg>
