<svg width="27" height="27" viewBox="0 0 27 27" fill="none" xmlns="http://www.w3.org/2000/svg">
<path fill-rule="evenodd" clip-rule="evenodd" d="M13.5 1.40625C10.5487 1.40625 8.15625 3.79873 8.15625 6.75V7.03125H4.5C4.03401 7.03125 3.65625 7.40901 3.65625 7.875C3.65625 8.34099 4.03401 8.71875 4.5 8.71875H22.5C22.966 8.71875 23.3438 8.34099 23.3438 7.875C23.3438 7.40901 22.966 7.03125 22.5 7.03125H18.8438V6.75C18.8438 3.79873 16.4513 1.40625 13.5 1.40625ZM13.5 3.09375C15.5193 3.09375 17.1562 4.73071 17.1562 6.75V7.03125H9.84375V6.75C9.84375 4.73071 11.4807 3.09375 13.5 3.09375Z" fill="#BDBDBD"/>
<path d="M6.46497 10.0452C6.42089 9.58129 6.00909 9.24096 5.54519 9.28503C5.08129 9.32911 4.74096 9.74091 4.78503 10.2048C4.89131 11.3234 5.08312 12.7016 5.32967 14.4732L5.6464 16.7492C5.94922 18.9257 6.12095 20.1601 6.49248 21.1713C7.18392 23.0533 8.41731 24.5619 10.0036 25.2313C10.8649 25.5948 11.8502 25.5944 13.317 25.5938H13.683C15.1498 25.5944 16.1351 25.5948 16.9964 25.2313C18.5827 24.5619 19.8161 23.0533 20.5075 21.1713C20.8791 20.1601 21.0508 18.9257 21.3536 16.7491L21.6703 14.4732C21.9169 12.7016 22.1087 11.3234 22.215 10.2048C22.259 9.74091 21.9187 9.32911 21.4548 9.28503C20.9909 9.24096 20.5791 9.58129 20.535 10.0452C20.4326 11.1229 20.246 12.465 19.9962 14.2606L19.701 16.3813C19.3742 18.7298 19.2245 19.7703 18.9235 20.5894C18.3432 22.169 17.3781 23.2387 16.3404 23.6766C15.8339 23.8903 15.2203 23.9062 13.5 23.9062C11.7797 23.9062 11.1661 23.8903 10.6596 23.6766C9.62189 23.2387 8.65683 22.169 8.07645 20.5894C7.7755 19.7703 7.62582 18.7299 7.29897 16.3813L7.00385 14.2606C6.75396 12.465 6.56736 11.1229 6.46497 10.0452Z" fill="#BDBDBD"/>
<path d="M12.0938 11.25C12.0938 10.784 11.716 10.4062 11.25 10.4062C10.784 10.4062 10.4062 10.784 10.4062 11.25V20.25C10.4062 20.716 10.784 21.0938 11.25 21.0938C11.716 21.0938 12.0938 20.716 12.0938 20.25V11.25Z" fill="#BDBDBD"/>
<path d="M16.5938 11.25C16.5938 10.784 16.216 10.4062 15.75 10.4062C15.284 10.4062 14.9062 10.784 14.9062 11.25V20.25C14.9062 20.716 15.284 21.0938 15.75 21.0938C16.216 21.0938 16.5938 20.716 16.5938 20.25V11.25Z" fill="#BDBDBD"/>
</svg>
