<svg width="21" height="27" viewBox="0 0 21 27" fill="none" xmlns="http://www.w3.org/2000/svg">
<path d="M14.5213 6.78647C14.5213 8.92599 12.751 10.6905 10.5297 10.6905V12.6905C13.822 12.6905 16.5213 10.0638 16.5213 6.78647H14.5213ZM10.5297 10.6905C8.30847 10.6905 6.53813 8.92599 6.53813 6.78647H4.53813C4.53813 10.0638 7.23742 12.6905 10.5297 12.6905V10.6905ZM6.53813 6.78647C6.53813 4.64695 8.30847 2.88245 10.5297 2.88245V0.882446C7.23742 0.882446 4.53813 3.50916 4.53813 6.78647H6.53813ZM10.5297 2.88245C12.751 2.88245 14.5213 4.64695 14.5213 6.78647H16.5213C16.5213 3.50916 13.822 0.882446 10.5297 0.882446V2.88245ZM6.78603 16.3685H14.2734V14.3685H6.78603V16.3685ZM14.2734 24.1766H6.78603V26.1766H14.2734V24.1766ZM6.78603 24.1766C4.56477 24.1766 2.79443 22.4121 2.79443 20.2725H0.794434C0.794434 23.5499 3.49372 26.1766 6.78603 26.1766V24.1766ZM18.265 20.2725C18.265 22.4121 16.4947 24.1766 14.2734 24.1766V26.1766C17.5657 26.1766 20.265 23.5499 20.265 20.2725H18.265ZM14.2734 16.3685C16.4947 16.3685 18.265 18.133 18.265 20.2725H20.265C20.265 16.9952 17.5657 14.3685 14.2734 14.3685V16.3685ZM6.78603 14.3685C3.49372 14.3685 0.794434 16.9952 0.794434 20.2725H2.79443C2.79443 18.133 4.56477 16.3685 6.78603 16.3685V14.3685Z" fill="#0D0C0B"/>
</svg>
