<svg width="70" height="49" viewBox="0 0 70 49" fill="none" xmlns="http://www.w3.org/2000/svg">
<path d="M68.4552 7.67312C68.0537 6.19003 67.2705 4.83794 66.1835 3.7515C65.0966 2.66506 63.7439 1.88217 62.2601 1.48078C56.8279 0 34.9651 0 34.9651 0C34.9651 0 13.1012 0.0448223 7.66901 1.5256C6.18518 1.92701 4.83244 2.70995 3.74551 3.79644C2.65858 4.88293 1.87538 6.23507 1.47391 7.71821C-0.169208 17.3654 -0.806602 32.0656 1.51902 41.3269C1.92054 42.81 2.70376 44.1621 3.79068 45.2485C4.87761 46.3349 6.23033 47.1178 7.71413 47.5192C13.1463 49 35.0097 49 35.0097 49C35.0097 49 56.8727 49 62.3047 47.5192C63.7885 47.1179 65.1413 46.335 66.2283 45.2486C67.3152 44.1621 68.0985 42.81 68.5 41.3269C70.2331 31.666 70.7671 16.9749 68.4552 7.67312Z" fill="#FF0000"/>
<path d="M28 35L47 24.5L28.0003 14L28 35Z" fill="white"/>
</svg>
