<svg width="24" height="25" viewBox="0 0 24 25" fill="none" xmlns="http://www.w3.org/2000/svg">
<path d="M12.7517 7.29036C12.7517 6.85889 12.416 6.50911 12.0017 6.50911C11.5875 6.50911 11.2517 6.85889 11.2517 7.29036V13.5404C11.2517 13.9718 11.5875 14.3216 12.0017 14.3216C12.416 14.3216 12.7517 13.9718 12.7517 13.5404V7.29036Z" fill="#59A750"/>
<path fill-rule="evenodd" clip-rule="evenodd" d="M14.3405 1.81861C12.8518 1.12817 11.1517 1.12817 9.66301 1.81861C8.73219 2.2503 7.98053 3.07761 7.2043 4.22205C6.43052 5.36289 5.56397 6.92635 4.44448 8.94616L4.40357 9.01998C3.28407 11.0398 2.41751 12.6032 1.85593 13.8717C1.29257 15.1442 0.980588 16.2359 1.08709 17.2914C1.25743 18.9796 2.10746 20.5133 3.42583 21.511C4.25015 22.1349 5.31379 22.3993 6.65337 22.5273C7.98872 22.655 9.72182 22.655 11.9608 22.6549H12.0427C14.2816 22.655 16.0148 22.655 17.3501 22.5273C18.6897 22.3993 19.7533 22.1349 20.5777 21.511C21.896 20.5133 22.7461 18.9796 22.9164 17.2914C23.0229 16.2359 22.7109 15.1442 22.1476 13.8717C21.586 12.6032 20.7194 11.0398 19.5999 9.01992L19.559 8.94608C18.4395 6.92631 17.573 5.36287 16.7992 4.22205C16.023 3.07761 15.2713 2.2503 14.3405 1.81861ZM10.2731 3.24602C11.3735 2.7357 12.63 2.7357 13.7304 3.24602C14.2837 3.50264 14.8425 4.04501 15.5741 5.12366C16.3035 6.19899 17.1362 7.69996 18.2804 9.76432C19.4246 11.8287 20.2561 13.3304 20.7854 14.5261C21.3164 15.7254 21.4879 16.5007 21.4246 17.1281C21.2987 18.3759 20.6704 19.5095 19.696 20.247C19.206 20.6178 18.4757 20.8507 17.2131 20.9714C15.9544 21.0917 14.2901 21.0924 12.0017 21.0924C9.71338 21.0924 8.04909 21.0917 6.79041 20.9714C5.52783 20.8507 4.79752 20.6178 4.30751 20.247C3.33306 19.5095 2.70478 18.3759 2.57888 17.1281C2.51557 16.5007 2.68708 15.7254 3.21805 14.5261C3.74739 13.3304 4.57888 11.8287 5.72306 9.76432C6.86725 7.69996 7.70004 6.19899 8.42939 5.12366C9.16099 4.04501 9.7198 3.50264 10.2731 3.24602Z" fill="#59A750"/>
<path d="M13.0018 16.6654C13.0018 17.2407 12.5541 17.707 12.0018 17.707C11.4495 17.707 11.0018 17.2407 11.0018 16.6654C11.0018 16.0901 11.4495 15.6237 12.0018 15.6237C12.5541 15.6237 13.0018 16.0901 13.0018 16.6654Z" fill="#59A750"/>
</svg>
