<svg width="17" height="16" viewBox="0 0 17 16" fill="none" xmlns="http://www.w3.org/2000/svg">
<path d="M1.41667 2.82353C2.19907 2.82353 2.83333 2.19146 2.83333 1.41176C2.83333 0.632069 2.19907 0 1.41667 0C0.634263 0 0 0.632069 0 1.41176C0 2.19146 0.634263 2.82353 1.41667 2.82353Z" fill="#B0B0B0"/>
<path d="M5.66667 0.470588C5.14506 0.470588 4.72222 0.891967 4.72222 1.41176C4.72222 1.93156 5.14506 2.35294 5.66667 2.35294H16.0556C16.5772 2.35294 17 1.93156 17 1.41176C17 0.891967 16.5772 0.470588 16.0556 0.470588H5.66667Z" fill="#B0B0B0"/>
<path d="M5.66667 7.05882C5.14506 7.05882 4.72222 7.4802 4.72222 8C4.72222 8.5198 5.14506 8.94118 5.66667 8.94118H16.0556C16.5772 8.94118 17 8.5198 17 8C17 7.4802 16.5772 7.05882 16.0556 7.05882H5.66667Z" fill="#B0B0B0"/>
<path d="M4.72222 14.5882C4.72222 14.0684 5.14506 13.6471 5.66667 13.6471H16.0556C16.5772 13.6471 17 14.0684 17 14.5882C17 15.108 16.5772 15.5294 16.0556 15.5294H5.66667C5.14506 15.5294 4.72222 15.108 4.72222 14.5882Z" fill="#B0B0B0"/>
<path d="M2.83333 8C2.83333 8.7797 2.19907 9.41177 1.41667 9.41177C0.634263 9.41177 0 8.7797 0 8C0 7.2203 0.634263 6.58824 1.41667 6.58824C2.19907 6.58824 2.83333 7.2203 2.83333 8Z" fill="#B0B0B0"/>
<path d="M1.41667 16C2.19907 16 2.83333 15.3679 2.83333 14.5882C2.83333 13.8085 2.19907 13.1765 1.41667 13.1765C0.634263 13.1765 0 13.8085 0 14.5882C0 15.3679 0.634263 16 1.41667 16Z" fill="#B0B0B0"/>
</svg>
